<svg width="137" height="28" viewBox="0 0 137 28" fill="none" xmlns="http://www.w3.org/2000/svg">
<path fill-rule="evenodd" clip-rule="evenodd" d="M0 11.2005C0 7.28012 0 5.31994 0.762954 3.82255C1.43407 2.50542 2.50493 1.43456 3.82207 0.763443C5.31945 0.000488281 7.27963 0.000488281 11.2 0.000488281H16.8C20.7204 0.000488281 22.6806 0.000488281 24.1779 0.763443C25.4951 1.43456 26.5659 2.50542 27.237 3.82255C28 5.31994 28 7.28012 28 11.2005V16.8005C28 20.7209 28 22.681 27.237 24.1784C26.5659 25.4956 25.4951 26.5664 24.1779 27.2375C22.6806 28.0005 20.7204 28.0005 16.8 28.0005H11.2C7.27963 28.0005 5.31945 28.0005 3.82207 27.2375C2.50493 26.5664 1.43407 25.4956 0.762954 24.1784C0 22.681 0 20.7209 0 16.8005V11.2005Z" fill="#26282C"/>
<path d="M7 10.8894H17.1111V21.0005H7V10.8894Z" fill="white"/>
<path d="M10.8889 7.00049H21V17.1116H10.8889V7.00049Z" fill="white"/>
<path d="M10.8889 10.8894H17.1111V17.1116H10.8889V10.8894Z" fill="#26282C"/>
<path d="M65.2556 3.50049V20.1254H67.8637V3.50049H65.2556Z" fill="#26282C"/>
<path fill-rule="evenodd" clip-rule="evenodd" d="M56.4682 20.5345C55.422 20.5345 54.5011 20.3602 53.7055 20.0117C52.9097 19.6481 52.2394 19.1708 51.6941 18.5799C51.1489 17.989 50.7364 17.3224 50.4565 16.58C50.1765 15.8224 50.0365 15.0421 50.0365 14.2391V13.7845C50.0365 12.9815 50.1765 12.2012 50.4565 11.4437C50.7512 10.6861 51.1711 10.0119 51.7162 9.42094C52.2761 8.8149 52.9539 8.33764 53.7496 7.98916C54.5453 7.64066 55.4515 7.46645 56.4682 7.46645C57.4849 7.46645 58.3836 7.64066 59.1646 7.98916C59.9603 8.33764 60.6381 8.8149 61.198 9.42094C61.7579 10.0119 62.1779 10.6861 62.4578 11.4437C62.7525 12.2012 62.8998 12.9815 62.8998 13.7845V14.2391C62.8998 15.0421 62.7599 15.8224 62.4798 16.58C62.2 17.3224 61.7874 17.989 61.2422 18.5799C60.697 19.1708 60.0266 19.6481 59.2309 20.0117C58.4352 20.3602 57.5144 20.5345 56.4682 20.5345ZM56.4682 18.2163C57.2785 18.2163 57.9711 18.0345 58.5457 17.6709C59.1204 17.2921 59.5551 16.7845 59.8497 16.1481C60.1592 15.5118 60.3139 14.7997 60.3139 14.0118C60.3139 13.2088 60.1592 12.4891 59.8497 11.8527C59.5404 11.2164 59.0983 10.7164 58.5236 10.3528C57.949 9.97399 57.2638 9.78458 56.4682 9.78458C55.6725 9.78458 54.9873 9.97399 54.4127 10.3528C53.838 10.7164 53.396 11.2164 53.0866 11.8527C52.7772 12.4891 52.6224 13.2088 52.6224 14.0118C52.6224 14.7997 52.7698 15.5118 53.0645 16.1481C53.3739 16.7845 53.8159 17.2921 54.3906 17.6709C54.9652 18.0345 55.6578 18.2163 56.4682 18.2163Z" fill="#26282C"/>
<path d="M39.8924 19.4436C40.7912 20.1405 42.0437 20.489 43.6497 20.489C44.6517 20.489 45.5284 20.3299 46.2798 20.0117C47.0461 19.6784 47.6429 19.2163 48.0701 18.6254C48.4975 18.0345 48.7111 17.3451 48.7111 16.5572C48.7111 15.4663 48.3132 14.6179 47.5176 14.0118C46.7367 13.3906 45.6758 13.0043 44.3349 12.8527L43.1635 12.7391C42.5004 12.6633 42.0216 12.5042 41.7269 12.2618C41.4322 12.0194 41.2848 11.6861 41.2848 11.2618C41.2848 10.7922 41.4764 10.4058 41.8594 10.1028C42.2573 9.79975 42.8246 9.64824 43.5614 9.64824C44.3423 9.64824 44.9317 9.80733 45.3295 10.1255C45.7273 10.4437 45.941 10.8376 45.9704 11.3073H48.3353C48.3059 10.0649 47.8565 9.1255 46.9871 8.48917C46.1178 7.83765 44.9759 7.5119 43.5614 7.5119C42.6478 7.5119 41.8374 7.66341 41.1301 7.96644C40.4376 8.26946 39.8924 8.70127 39.4946 9.26188C39.0968 9.82248 38.8979 10.5119 38.8979 11.33C38.8979 12.3603 39.2514 13.1785 39.9587 13.7845C40.6808 14.3906 41.6532 14.7618 42.8762 14.8982L44.0476 15.0118C44.8727 15.1027 45.4547 15.2845 45.7936 15.5572C46.1473 15.8148 46.3241 16.1709 46.3241 16.6254C46.3241 17.1254 46.0883 17.5421 45.6169 17.8754C45.1453 18.2087 44.497 18.3754 43.6718 18.3754C42.6994 18.3754 41.9995 18.186 41.5721 17.8072C41.1449 17.4284 40.9165 17.0118 40.887 16.5572H38.5C38.5442 17.7845 39.0083 18.7466 39.8924 19.4436Z" fill="#26282C"/>
<path d="M70.7299 20.1254V7.87554H73.3159V20.1254H70.7299Z" fill="#26282C"/>
<path fill-rule="evenodd" clip-rule="evenodd" d="M81.4579 20.5345C80.6032 20.5345 79.8223 20.3754 79.1151 20.0572C78.4225 19.739 77.811 19.292 77.2806 18.7163C76.7649 18.1406 76.367 17.4739 76.0871 16.7163C75.8071 15.9587 75.6671 15.133 75.6671 14.2391V13.8073C75.6671 12.9285 75.7998 12.1103 76.065 11.3528C76.3449 10.58 76.7354 9.90582 77.2364 9.33005C77.7373 8.75431 78.3341 8.30733 79.0266 7.98916C79.7339 7.65583 80.5148 7.48915 81.3694 7.48915C82.283 7.48915 83.1008 7.6937 83.8227 8.10278C84.4881 8.45857 85.0333 8.99354 85.4583 9.70768V3.50049H88.0442V20.1254H85.9887V17.6217C85.921 17.7731 85.8473 17.9183 85.7677 18.0572C85.2963 18.9057 84.6847 19.5344 83.9332 19.9435C83.1818 20.3375 82.3566 20.5345 81.4579 20.5345ZM81.9441 18.239C82.6072 18.239 83.2039 18.0875 83.7344 17.7845C84.2795 17.4815 84.7141 17.0421 85.0383 16.4663C85.3772 15.8754 85.5467 15.186 85.5467 14.3981V13.4209C85.5467 12.6482 85.3772 11.9891 85.0383 11.4437C84.6994 10.8982 84.2574 10.4816 83.7122 10.1937C83.1671 9.90582 82.5703 9.76189 81.922 9.76189C81.2 9.76189 80.5591 9.94368 79.9991 10.3073C79.4539 10.6558 79.0266 11.1482 78.7172 11.7846C78.4078 12.4209 78.2531 13.1633 78.2531 14.0118C78.2531 14.8754 78.4078 15.6254 78.7172 16.2618C79.0414 16.8981 79.4834 17.3906 80.0433 17.7391C80.6032 18.0724 81.2368 18.239 81.9441 18.239Z" fill="#26282C"/>
<path fill-rule="evenodd" clip-rule="evenodd" d="M95.7573 24.5005H92.3856V22.2617H95.7573C95.7573 22.2617 97.6603 22.2108 98.307 22.019C98.8487 21.8584 99.3531 21.5875 99.633 21.0117C99.9277 20.4511 100.075 19.7163 100.075 18.8072V17.7023L100.055 17.741L100.031 17.7845C99.6036 18.5875 99.0289 19.1936 98.307 19.6026C97.5997 20.0117 96.7893 20.2163 95.8757 20.2163C95.0506 20.2163 94.2991 20.0572 93.6214 19.739C92.9435 19.4208 92.3615 18.9739 91.8752 18.3981C91.389 17.8224 91.0132 17.1633 90.748 16.4209C90.4828 15.6633 90.3503 14.8603 90.3503 14.0118V13.58C90.3503 12.7163 90.4828 11.9133 90.748 11.1709C91.028 10.4285 91.4185 9.78458 91.9194 9.23915C92.4205 8.67855 93.0172 8.24674 93.7097 7.94371C94.417 7.64066 95.1905 7.48915 96.0304 7.48915C97.0029 7.48915 97.8575 7.70886 98.5943 8.14823C99.3457 8.57249 99.9351 9.20129 100.362 10.0346C100.401 10.1096 100.438 10.186 100.473 10.2639V7.87554H102.528V18.6708C102.528 20.1557 102.293 21.3526 101.821 22.2617C101.364 23.1859 100.486 23.6997 99.5707 24.0348C98.6551 24.3699 97.232 24.5005 95.7573 24.5005ZM96.5167 17.8527C97.1649 17.8527 97.7543 17.7087 98.2848 17.4209C98.83 17.1178 99.2573 16.6936 99.5667 16.1481C99.8909 15.5875 100.053 14.9209 100.053 14.1482V13.2164C100.053 12.4588 99.8835 11.8224 99.5446 11.3073C99.2204 10.777 98.7932 10.3755 98.2628 10.1028C97.7323 9.83003 97.1576 9.69369 96.5388 9.69369C95.8315 9.69369 95.2053 9.86792 94.6601 10.2164C94.1149 10.5497 93.6876 11.027 93.3782 11.6482C93.0835 12.2543 92.9362 12.9664 92.9362 13.7845C92.9362 14.6179 93.0908 15.3451 93.4003 15.9663C93.7097 16.5724 94.1297 17.0421 94.6601 17.3754C95.2053 17.6936 95.8241 17.8527 96.5167 17.8527Z" fill="#26282C"/>
<path fill-rule="evenodd" clip-rule="evenodd" d="M112.711 20.1254V17.7715C112.612 18.0911 112.487 18.3833 112.335 18.6481C112.011 19.2239 111.554 19.6708 110.965 19.989C110.39 20.292 109.683 20.4435 108.843 20.4435C107.974 20.4435 107.215 20.292 106.567 19.989C105.918 19.6708 105.417 19.2163 105.064 18.6254C104.71 18.0193 104.533 17.2996 104.533 16.4663C104.533 15.5875 104.732 14.8603 105.13 14.2845C105.543 13.7088 106.125 13.2769 106.876 12.9891C107.628 12.7012 108.526 12.5573 109.572 12.5573H112.291V12.33C112.291 11.5724 112.1 10.9967 111.716 10.6028C111.333 10.2088 110.766 10.0119 110.015 10.0119C109.602 10.0119 109.145 10.0194 108.644 10.0346C108.552 10.0374 108.46 10.0404 108.368 10.0437C108.29 10.0465 108.212 10.0495 108.135 10.0527C108.067 10.0555 108 10.0584 107.933 10.0614C107.674 10.0731 107.418 10.0869 107.163 10.1028C106.938 10.11 106.725 10.119 106.524 10.1296C106.303 10.1413 106.096 10.1551 105.904 10.1709V7.87554C106.228 7.84521 106.581 7.82251 106.964 7.80734C107.362 7.77706 107.767 7.75431 108.18 7.73917C108.607 7.72403 109.013 7.71645 109.396 7.71645C110.604 7.71645 111.606 7.87554 112.402 8.19371C113.197 8.51187 113.787 9.01944 114.17 9.71641C114.568 10.3982 114.766 11.3149 114.766 12.4664V20.1254H112.711ZM112.291 14.3073V15.58C112.262 16.3224 112.107 16.8981 111.827 17.3072C111.562 17.7163 111.223 18.0117 110.81 18.1936C110.398 18.3602 109.963 18.4436 109.506 18.4436C108.725 18.4436 108.129 18.2618 107.716 17.8981C107.303 17.5193 107.097 17.0194 107.097 16.3981C107.097 15.7769 107.303 15.2769 107.716 14.8982C108.129 14.5042 108.725 14.3073 109.506 14.3073H112.291Z" fill="#26282C"/>
<path d="M121.807 20.2617C120.82 20.2617 119.987 20.1254 119.31 19.8526C118.632 19.5799 118.116 19.1102 117.762 18.4436C117.423 17.7769 117.254 16.8754 117.254 15.7391V4.37549H119.707V7.87554H123.597V9.85278H119.707V15.9663C119.707 16.6027 119.869 17.0951 120.194 17.4436C120.533 17.7769 121.004 17.9436 121.608 17.9436H123.597V20.2617H121.807Z" fill="#26282C"/>
<path fill-rule="evenodd" clip-rule="evenodd" d="M130.864 20.5345C129.833 20.5345 128.934 20.3526 128.168 19.989C127.401 19.6254 126.775 19.1481 126.289 18.5572C125.803 17.9512 125.434 17.2769 125.184 16.5345C124.948 15.7769 124.83 15.0042 124.83 14.2164V13.7845C124.83 12.9815 124.948 12.2088 125.184 11.4664C125.434 10.7088 125.803 10.0346 126.289 9.4437C126.775 8.83765 127.387 8.36036 128.123 8.01189C128.875 7.64825 129.744 7.46645 130.731 7.46645C132.013 7.46645 133.082 7.75431 133.936 8.33008C134.791 8.90582 135.432 9.65582 135.859 10.58C136.286 11.4891 136.5 12.4739 136.5 13.5345V14.6027H127.306C127.353 15.1878 127.471 15.7257 127.659 16.2163C127.91 16.8527 128.3 17.3602 128.831 17.7391C129.361 18.1027 130.039 18.2845 130.864 18.2845C131.689 18.2845 132.367 18.1027 132.897 17.7391C133.428 17.3602 133.752 16.9209 133.87 16.4209H136.279C136.117 17.2542 135.785 17.9815 135.284 18.6027C134.798 19.2239 134.179 19.7011 133.428 20.0345C132.676 20.3678 131.822 20.5345 130.864 20.5345ZM127.659 11.7618C127.533 12.0816 127.439 12.4301 127.376 12.8073H133.989C133.929 12.3637 133.823 11.9622 133.671 11.6028C133.42 10.9967 133.052 10.5346 132.566 10.2164C132.08 9.88306 131.468 9.71641 130.731 9.71641C129.965 9.71641 129.324 9.89823 128.809 10.2619C128.293 10.6255 127.91 11.1255 127.659 11.7618Z" fill="#26282C"/>
<path d="M70.7299 6.17799V3.50049H73.3159V6.17799H70.7299Z" fill="#26282C"/>
</svg>
